<svg width="213" height="200" viewBox="0 0 213 200" fill="none" xmlns="http://www.w3.org/2000/svg">
<rect width="213" height="200" fill="#F8F8FA"/>
<g opacity="0.5" clip-path="url(#clip0_11721_889)">
<path fill-rule="evenodd" clip-rule="evenodd" d="M135.23 81.1487C135.752 81.3571 136.2 81.7171 136.515 82.1823C136.831 82.6476 137 83.1966 137 83.7587V116.241C137 116.803 136.831 117.352 136.515 117.818C136.2 118.283 135.752 118.643 135.23 118.851L108.043 129.726C107.372 129.994 106.624 129.994 105.954 129.726L78.7663 118.851C78.2449 118.642 77.798 118.282 77.4832 117.817C77.1684 117.352 77.0001 116.803 77 116.241V83.7587C77.0001 83.1971 77.1684 82.6483 77.4832 82.1831C77.798 81.718 78.2449 81.3577 78.7663 81.1487L104.911 70.69L104.949 70.6787L105.954 70.2737C106.625 70.0046 107.375 70.0046 108.046 70.2737L109.055 70.6787L109.092 70.69L135.23 81.1487ZM116.015 77.5L92.9375 86.7287L83.9225 83.125L80.75 84.3962V85.8962L105.125 95.6462V125.354L107 126.104L108.875 125.354V95.65L133.25 85.9V84.4L130.077 83.1287L107 92.3537L97.985 88.75L121.062 79.5212L116.015 77.5Z" fill="#A6A9C7"/>
</g>
<defs>
<clipPath id="clip0_11721_889">
<rect width="60" height="60" fill="white" transform="translate(77 70)"/>
</clipPath>
</defs>
</svg>
